<svg xmlns="http://www.w3.org/2000/svg" width="16" height="16" viewBox="0 0 16 16" fill="none">
  <path fill="currentColor" d="M8 0a8 8 0 1 1 0 16A8 8 0 0 1 8 0ZM1.6 8a6.4 6.4 0 0 0 1.771 4.409l.013-.013.721-.721a2.4 2.4 0 0 1 1.405-.721.448.448 0 0 0 .273-.784l-1.376-1.376A.8.8 0 0 1 4 8.8V8.111c0-.806.981-1.285 1.683-.956l1.223.571a.4.4 0 0 0 .338 0l1.223-.571c.701-.329 1.683.15 1.683.956V8.8a.8.8 0 0 1-.407.694l-1.376 1.376a.448.448 0 0 0 .273.784 2.4 2.4 0 0 1 1.405.721l.721.721.013.013A6.4 6.4 0 1 0 1.6 8Z"/>
</svg>
